<svg xmlns="http://www.w3.org/2000/svg" viewBox="0 0 1600 900" font-family="Inter, -apple-system, 'Segoe UI', sans-serif">
<defs><filter id="soft" x="-20%" y="-20%" width="140%" height="140%"><feDropShadow dx="0" dy="6" stdDeviation="14" flood-color="#221e19" flood-opacity="0.05"/></filter></defs>
<rect width="1600" height="900" fill="#f8f8f8"/>
<rect width="1600" height="64" fill="#ffffff"/><line x1="0" y1="64" x2="1600" y2="64" stroke="#e7e3dc"/>
<rect x="28" y="20" width="24" height="24" rx="7" fill="#6e2c2c"/>
<text x="64" y="37" font-family="Inter, -apple-system, 'Segoe UI', sans-serif" font-size="15" font-weight="800" fill="#221e19" text-anchor="start" letter-spacing="0.14em">NEXGEN</text>
<text x="148" y="37" font-family="Inter, -apple-system, 'Segoe UI', sans-serif" font-size="15" font-weight="500" fill="#8a8177" text-anchor="start">iMatch — Face Search</text>
<rect x="620" y="16" width="360" height="32" rx="16" fill="#f8f8f8" stroke="#e7e3dc"/>
<text x="644" y="36" font-family="Inter, -apple-system, 'Segoe UI', sans-serif" font-size="12.5" font-weight="500" fill="#b5aca1" text-anchor="start">Search cases, people, evidence…</text>
<rect x="1268" y="19" width="122" height="26" rx="13" fill="#f1efe9"/><text x="1329.0" y="36" font-family="Inter, -apple-system, 'Segoe UI', sans-serif" font-size="10" font-weight="700" fill="#8a8177" text-anchor="middle" letter-spacing="0.08em">EVIDENCE-GRADE</text>
<circle cx="1436" cy="32" r="14" fill="#f4e9eb"/><text x="1436" y="37" font-family="Inter, -apple-system, 'Segoe UI', sans-serif" font-size="11" font-weight="700" fill="#9a4e5b" text-anchor="middle">DK</text>
<text x="1560" y="37" font-family="'JetBrains Mono', Consolas, monospace" font-size="12" font-weight="600" fill="#b5aca1" text-anchor="end">CASE NX-0429</text>
<rect x="0" y="64" width="216" height="836" fill="#ffffff"/>
<line x1="216" y1="64" x2="216" y2="900" stroke="#e7e3dc"/>
<text x="38" y="110" font-family="Inter, -apple-system, 'Segoe UI', sans-serif" font-size="13.5" font-weight="500" fill="#8a8177" text-anchor="start">Cases</text>
<rect x="14" y="138" width="188" height="38" rx="10" fill="#f4e9eb"/>
<rect x="14" y="138" width="3.5" height="38" rx="1.75" fill="#9a4e5b"/>
<text x="38" y="162" font-family="Inter, -apple-system, 'Segoe UI', sans-serif" font-size="13.5" font-weight="700" fill="#6e2c2c" text-anchor="start">Search</text>
<text x="38" y="214" font-family="Inter, -apple-system, 'Segoe UI', sans-serif" font-size="13.5" font-weight="500" fill="#8a8177" text-anchor="start">Analyse</text>
<text x="38" y="266" font-family="Inter, -apple-system, 'Segoe UI', sans-serif" font-size="13.5" font-weight="500" fill="#8a8177" text-anchor="start">Graph</text>
<text x="38" y="318" font-family="Inter, -apple-system, 'Segoe UI', sans-serif" font-size="13.5" font-weight="500" fill="#8a8177" text-anchor="start">Reports</text>
<text x="38" y="370" font-family="Inter, -apple-system, 'Segoe UI', sans-serif" font-size="13.5" font-weight="500" fill="#8a8177" text-anchor="start">Audit</text>
<text x="38" y="856" font-family="'JetBrains Mono', Consolas, monospace" font-size="11" font-weight="500" fill="#b5aca1" text-anchor="start">v2.4 · audit on</text>
<text x="252" y="118" font-family="Inter, -apple-system, 'Segoe UI', sans-serif" font-size="26" font-weight="750" fill="#221e19" text-anchor="start">Face Search</text>
<text x="252" y="144" font-family="Inter, -apple-system, 'Segoe UI', sans-serif" font-size="13" font-weight="500" fill="#8a8177" text-anchor="start">Probe compared against 2.4M enrolled templates · gallery: Central-01</text>
<rect x="1435" y="100" width="129" height="26" rx="13" fill="#e9f1ea"/><text x="1499.5" y="117" font-family="Inter, -apple-system, 'Segoe UI', sans-serif" font-size="10" font-weight="700" fill="#3e7d4f" text-anchor="middle" letter-spacing="0.08em">SEARCH COMPLETE</text>
<rect x="252" y="170" width="330" height="460" rx="14" fill="#ffffff" stroke="#e7e3dc" filter="url(#soft)"/>
<text x="280" y="206" font-family="Inter, -apple-system, 'Segoe UI', sans-serif" font-size="11" font-weight="700" fill="#8a8177" text-anchor="start" letter-spacing="0.12em">PROBE</text>
<rect x="280" y="222" width="274" height="250" rx="12" fill="#f8f8f8" stroke="#e7e3dc"/>
<circle cx="417" cy="330" r="78" fill="#d8d2c9"/><circle cx="417" cy="310.5" r="29.64" fill="#f6f3ee"/><path d="M 368.64 400.2 Q 417 337.8 465.36 400.2 Z" fill="#f6f3ee"/>
<rect x="352" y="268" width="130" height="130" rx="8" fill="none" stroke="#9a4e5b" stroke-width="1.5" stroke-dasharray="6 5"/>
<text x="280" y="506" font-family="Inter, -apple-system, 'Segoe UI', sans-serif" font-size="12.5" font-weight="500" fill="#8a8177" text-anchor="start">Quality score</text><text x="554" y="506" font-family="Inter, -apple-system, 'Segoe UI', sans-serif" font-size="12.5" font-weight="700" fill="#221e19" text-anchor="end">91 / 100</text>
<rect x="280" y="518" width="274" height="6" rx="3.0" fill="#e7e3dc"/><rect x="280" y="518" width="249" height="6" rx="3.0" fill="#9a4e5b"/>
<text x="280" y="560" font-family="Inter, -apple-system, 'Segoe UI', sans-serif" font-size="12.5" font-weight="500" fill="#8a8177" text-anchor="start">Landmarks</text><text x="554" y="560" font-family="Inter, -apple-system, 'Segoe UI', sans-serif" font-size="12.5" font-weight="700" fill="#221e19" text-anchor="end">468 detected</text>
<text x="280" y="590" font-family="Inter, -apple-system, 'Segoe UI', sans-serif" font-size="12.5" font-weight="500" fill="#8a8177" text-anchor="start">Source</text><text x="554" y="590" font-family="Inter, -apple-system, 'Segoe UI', sans-serif" font-size="12.5" font-weight="700" fill="#221e19" text-anchor="end">CCTV frame · 09:42</text>
<text x="618" y="196" font-family="Inter, -apple-system, 'Segoe UI', sans-serif" font-size="11" font-weight="700" fill="#8a8177" text-anchor="start" letter-spacing="0.12em">RANKED CANDIDATES</text>
<rect x="618" y="214" width="218" height="198" rx="12" fill="#ffffff" stroke="#e7e3dc" filter="url(#soft)"/>
<circle cx="727" cy="276" r="40" fill="#d8d2c9"/><circle cx="727" cy="266.0" r="15.2" fill="#f6f3ee"/><path d="M 702.2 312.0 Q 727 280.0 751.8 312.0 Z" fill="#f6f3ee"/>
<text x="727" y="342" font-family="'JetBrains Mono', Consolas, monospace" font-size="12.5" font-weight="700" fill="#221e19" text-anchor="middle">ID-593280</text>
<text x="638" y="370" font-family="Inter, -apple-system, 'Segoe UI', sans-serif" font-size="11" font-weight="500" fill="#8a8177" text-anchor="start">match</text><text x="816" y="370" font-family="Inter, -apple-system, 'Segoe UI', sans-serif" font-size="12" font-weight="750" fill="#9a4e5b" text-anchor="end">98.7%</text>
<rect x="638" y="382" width="178" height="6" rx="3.0" fill="#e7e3dc"/><rect x="638" y="382" width="176" height="6" rx="3.0" fill="#9a4e5b"/>
<rect x="618" y="214" width="218" height="198" rx="12" fill="none" stroke="#9a4e5b" stroke-width="1.6"/>
<rect x="748" y="226" width="66" height="26" rx="13" fill="#f4e9eb"/><text x="781.0" y="243" font-family="Inter, -apple-system, 'Segoe UI', sans-serif" font-size="10" font-weight="700" fill="#9a4e5b" text-anchor="middle" letter-spacing="0.08em">RANK 1</text>
<rect x="858" y="214" width="218" height="198" rx="12" fill="#ffffff" stroke="#e7e3dc" filter="url(#soft)"/>
<circle cx="967" cy="276" r="40" fill="#d8d2c9"/><circle cx="967" cy="266.0" r="15.2" fill="#f6f3ee"/><path d="M 942.2 312.0 Q 967 280.0 991.8 312.0 Z" fill="#f6f3ee"/>
<text x="967" y="342" font-family="'JetBrains Mono', Consolas, monospace" font-size="12.5" font-weight="700" fill="#221e19" text-anchor="middle">ID-593281</text>
<text x="878" y="370" font-family="Inter, -apple-system, 'Segoe UI', sans-serif" font-size="11" font-weight="500" fill="#8a8177" text-anchor="start">match</text><text x="1056" y="370" font-family="Inter, -apple-system, 'Segoe UI', sans-serif" font-size="12" font-weight="750" fill="#221e19" text-anchor="end">96.2%</text>
<rect x="878" y="382" width="178" height="6" rx="3.0" fill="#e7e3dc"/><rect x="878" y="382" width="171" height="6" rx="3.0" fill="#c9beb2"/>
<rect x="1098" y="214" width="218" height="198" rx="12" fill="#ffffff" stroke="#e7e3dc" filter="url(#soft)"/>
<circle cx="1207" cy="276" r="40" fill="#d8d2c9"/><circle cx="1207" cy="266.0" r="15.2" fill="#f6f3ee"/><path d="M 1182.2 312.0 Q 1207 280.0 1231.8 312.0 Z" fill="#f6f3ee"/>
<text x="1207" y="342" font-family="'JetBrains Mono', Consolas, monospace" font-size="12.5" font-weight="700" fill="#221e19" text-anchor="middle">ID-593282</text>
<text x="1118" y="370" font-family="Inter, -apple-system, 'Segoe UI', sans-serif" font-size="11" font-weight="500" fill="#8a8177" text-anchor="start">match</text><text x="1296" y="370" font-family="Inter, -apple-system, 'Segoe UI', sans-serif" font-size="12" font-weight="750" fill="#221e19" text-anchor="end">94.1%</text>
<rect x="1118" y="382" width="178" height="6" rx="3.0" fill="#e7e3dc"/><rect x="1118" y="382" width="167" height="6" rx="3.0" fill="#c9beb2"/>
<rect x="1338" y="214" width="218" height="198" rx="12" fill="#ffffff" stroke="#e7e3dc" filter="url(#soft)"/>
<circle cx="1447" cy="276" r="40" fill="#d8d2c9"/><circle cx="1447" cy="266.0" r="15.2" fill="#f6f3ee"/><path d="M 1422.2 312.0 Q 1447 280.0 1471.8 312.0 Z" fill="#f6f3ee"/>
<text x="1447" y="342" font-family="'JetBrains Mono', Consolas, monospace" font-size="12.5" font-weight="700" fill="#221e19" text-anchor="middle">ID-593283</text>
<text x="1358" y="370" font-family="Inter, -apple-system, 'Segoe UI', sans-serif" font-size="11" font-weight="500" fill="#8a8177" text-anchor="start">match</text><text x="1536" y="370" font-family="Inter, -apple-system, 'Segoe UI', sans-serif" font-size="12" font-weight="750" fill="#221e19" text-anchor="end">91.8%</text>
<rect x="1358" y="382" width="178" height="6" rx="3.0" fill="#e7e3dc"/><rect x="1358" y="382" width="163" height="6" rx="3.0" fill="#c9beb2"/>
<rect x="618" y="434" width="218" height="198" rx="12" fill="#ffffff" stroke="#e7e3dc" filter="url(#soft)"/>
<circle cx="727" cy="496" r="40" fill="#d8d2c9"/><circle cx="727" cy="486.0" r="15.2" fill="#f6f3ee"/><path d="M 702.2 532.0 Q 727 500.0 751.8 532.0 Z" fill="#f6f3ee"/>
<text x="727" y="562" font-family="'JetBrains Mono', Consolas, monospace" font-size="12.5" font-weight="700" fill="#221e19" text-anchor="middle">ID-593284</text>
<text x="638" y="590" font-family="Inter, -apple-system, 'Segoe UI', sans-serif" font-size="11" font-weight="500" fill="#8a8177" text-anchor="start">match</text><text x="816" y="590" font-family="Inter, -apple-system, 'Segoe UI', sans-serif" font-size="12" font-weight="750" fill="#221e19" text-anchor="end">89.7%</text>
<rect x="638" y="602" width="178" height="6" rx="3.0" fill="#e7e3dc"/><rect x="638" y="602" width="160" height="6" rx="3.0" fill="#c9beb2"/>
<rect x="858" y="434" width="218" height="198" rx="12" fill="#ffffff" stroke="#e7e3dc" filter="url(#soft)"/>
<circle cx="967" cy="496" r="40" fill="#d8d2c9"/><circle cx="967" cy="486.0" r="15.2" fill="#f6f3ee"/><path d="M 942.2 532.0 Q 967 500.0 991.8 532.0 Z" fill="#f6f3ee"/>
<text x="967" y="562" font-family="'JetBrains Mono', Consolas, monospace" font-size="12.5" font-weight="700" fill="#221e19" text-anchor="middle">ID-593285</text>
<text x="878" y="590" font-family="Inter, -apple-system, 'Segoe UI', sans-serif" font-size="11" font-weight="500" fill="#8a8177" text-anchor="start">match</text><text x="1056" y="590" font-family="Inter, -apple-system, 'Segoe UI', sans-serif" font-size="12" font-weight="750" fill="#221e19" text-anchor="end">87.2%</text>
<rect x="878" y="602" width="178" height="6" rx="3.0" fill="#e7e3dc"/><rect x="878" y="602" width="155" height="6" rx="3.0" fill="#c9beb2"/>
<rect x="1098" y="434" width="218" height="198" rx="12" fill="#ffffff" stroke="#e7e3dc" filter="url(#soft)"/>
<circle cx="1207" cy="496" r="40" fill="#d8d2c9"/><circle cx="1207" cy="486.0" r="15.2" fill="#f6f3ee"/><path d="M 1182.2 532.0 Q 1207 500.0 1231.8 532.0 Z" fill="#f6f3ee"/>
<text x="1207" y="562" font-family="'JetBrains Mono', Consolas, monospace" font-size="12.5" font-weight="700" fill="#221e19" text-anchor="middle">ID-593286</text>
<text x="1118" y="590" font-family="Inter, -apple-system, 'Segoe UI', sans-serif" font-size="11" font-weight="500" fill="#8a8177" text-anchor="start">match</text><text x="1296" y="590" font-family="Inter, -apple-system, 'Segoe UI', sans-serif" font-size="12" font-weight="750" fill="#221e19" text-anchor="end">85.1%</text>
<rect x="1118" y="602" width="178" height="6" rx="3.0" fill="#e7e3dc"/><rect x="1118" y="602" width="151" height="6" rx="3.0" fill="#c9beb2"/>
<rect x="1338" y="434" width="218" height="198" rx="12" fill="#ffffff" stroke="#e7e3dc" filter="url(#soft)"/>
<circle cx="1447" cy="496" r="40" fill="#d8d2c9"/><circle cx="1447" cy="486.0" r="15.2" fill="#f6f3ee"/><path d="M 1422.2 532.0 Q 1447 500.0 1471.8 532.0 Z" fill="#f6f3ee"/>
<text x="1447" y="562" font-family="'JetBrains Mono', Consolas, monospace" font-size="12.5" font-weight="700" fill="#221e19" text-anchor="middle">ID-593287</text>
<text x="1358" y="590" font-family="Inter, -apple-system, 'Segoe UI', sans-serif" font-size="11" font-weight="500" fill="#8a8177" text-anchor="start">match</text><text x="1536" y="590" font-family="Inter, -apple-system, 'Segoe UI', sans-serif" font-size="12" font-weight="750" fill="#221e19" text-anchor="end">83.3%</text>
<rect x="1358" y="602" width="178" height="6" rx="3.0" fill="#e7e3dc"/><rect x="1358" y="602" width="148" height="6" rx="3.0" fill="#c9beb2"/>
<rect x="252" y="668" width="1312" height="170" rx="14" fill="#ffffff" stroke="#e7e3dc" filter="url(#soft)"/>
<text x="280" y="704" font-family="Inter, -apple-system, 'Segoe UI', sans-serif" font-size="11" font-weight="700" fill="#8a8177" text-anchor="start" letter-spacing="0.12em">EXAMINER NOTE</text>
<text x="280" y="734" font-family="Inter, -apple-system, 'Segoe UI', sans-serif" font-size="14" font-weight="500" fill="#221e19" text-anchor="start">Candidate ID-593280 shows strong periocular and jawline agreement with the probe.</text>
<text x="280" y="758" font-family="Inter, -apple-system, 'Segoe UI', sans-serif" font-size="13" font-weight="500" fill="#8a8177" text-anchor="start">Verification pending human review — search result is an investigative lead only.</text>
<rect x="280" y="782" width="213" height="26" rx="13" fill="#e9f1ea"/><text x="386.5" y="799" font-family="Inter, -apple-system, 'Segoe UI', sans-serif" font-size="10" font-weight="700" fill="#3e7d4f" text-anchor="middle" letter-spacing="0.08em">CHAIN OF CUSTODY · VERIFIED</text>
<rect x="492" y="782" width="122" height="26" rx="13" fill="#f1efe9"/><text x="553.0" y="799" font-family="Inter, -apple-system, 'Segoe UI', sans-serif" font-size="10" font-weight="700" fill="#8a8177" text-anchor="middle" letter-spacing="0.08em">AUDIT #A-58191</text>
</svg>