<svg xmlns="http://www.w3.org/2000/svg" viewBox="0 0 1600 900" font-family="Inter, -apple-system, 'Segoe UI', sans-serif">
<defs><filter id="soft" x="-20%" y="-20%" width="140%" height="140%"><feDropShadow dx="0" dy="6" stdDeviation="14" flood-color="#221e19" flood-opacity="0.05"/></filter></defs>
<rect width="1600" height="900" fill="#f8f8f8"/>
<rect width="1600" height="64" fill="#ffffff"/><line x1="0" y1="64" x2="1600" y2="64" stroke="#e7e3dc"/>
<rect x="28" y="20" width="24" height="24" rx="7" fill="#6e2c2c"/>
<text x="64" y="37" font-family="Inter, -apple-system, 'Segoe UI', sans-serif" font-size="15" font-weight="800" fill="#221e19" text-anchor="start" letter-spacing="0.14em">NEXGEN</text>
<text x="148" y="37" font-family="Inter, -apple-system, 'Segoe UI', sans-serif" font-size="15" font-weight="500" fill="#8a8177" text-anchor="start">vMatch — Video Evidence</text>
<rect x="620" y="16" width="360" height="32" rx="16" fill="#f8f8f8" stroke="#e7e3dc"/>
<text x="644" y="36" font-family="Inter, -apple-system, 'Segoe UI', sans-serif" font-size="12.5" font-weight="500" fill="#b5aca1" text-anchor="start">Search cases, people, evidence…</text>
<rect x="1268" y="19" width="122" height="26" rx="13" fill="#f1efe9"/><text x="1329.0" y="36" font-family="Inter, -apple-system, 'Segoe UI', sans-serif" font-size="10" font-weight="700" fill="#8a8177" text-anchor="middle" letter-spacing="0.08em">EVIDENCE-GRADE</text>
<circle cx="1436" cy="32" r="14" fill="#f4e9eb"/><text x="1436" y="37" font-family="Inter, -apple-system, 'Segoe UI', sans-serif" font-size="11" font-weight="700" fill="#9a4e5b" text-anchor="middle">DK</text>
<text x="1560" y="37" font-family="'JetBrains Mono', Consolas, monospace" font-size="12" font-weight="600" fill="#b5aca1" text-anchor="end">CLIP VID-5932</text>
<rect x="0" y="64" width="216" height="836" fill="#ffffff"/>
<line x1="216" y1="64" x2="216" y2="900" stroke="#e7e3dc"/>
<text x="38" y="110" font-family="Inter, -apple-system, 'Segoe UI', sans-serif" font-size="13.5" font-weight="500" fill="#8a8177" text-anchor="start">Cases</text>
<text x="38" y="162" font-family="Inter, -apple-system, 'Segoe UI', sans-serif" font-size="13.5" font-weight="500" fill="#8a8177" text-anchor="start">Search</text>
<rect x="14" y="190" width="188" height="38" rx="10" fill="#f4e9eb"/>
<rect x="14" y="190" width="3.5" height="38" rx="1.75" fill="#9a4e5b"/>
<text x="38" y="214" font-family="Inter, -apple-system, 'Segoe UI', sans-serif" font-size="13.5" font-weight="700" fill="#6e2c2c" text-anchor="start">Analyse</text>
<text x="38" y="266" font-family="Inter, -apple-system, 'Segoe UI', sans-serif" font-size="13.5" font-weight="500" fill="#8a8177" text-anchor="start">Graph</text>
<text x="38" y="318" font-family="Inter, -apple-system, 'Segoe UI', sans-serif" font-size="13.5" font-weight="500" fill="#8a8177" text-anchor="start">Reports</text>
<text x="38" y="370" font-family="Inter, -apple-system, 'Segoe UI', sans-serif" font-size="13.5" font-weight="500" fill="#8a8177" text-anchor="start">Audit</text>
<text x="38" y="856" font-family="'JetBrains Mono', Consolas, monospace" font-size="11" font-weight="500" fill="#b5aca1" text-anchor="start">v2.4 · audit on</text>
<text x="252" y="118" font-family="Inter, -apple-system, 'Segoe UI', sans-serif" font-size="26" font-weight="750" fill="#221e19" text-anchor="start">Video Analysis</text>
<text x="252" y="144" font-family="Inter, -apple-system, 'Segoe UI', sans-serif" font-size="13" font-weight="500" fill="#8a8177" text-anchor="start">camera 12 · 2025-05-14 · 02:15 duration · 23 entities tracked</text>
<rect x="1449" y="100" width="115" height="26" rx="13" fill="#e9f1ea"/><text x="1506.5" y="117" font-family="Inter, -apple-system, 'Segoe UI', sans-serif" font-size="10" font-weight="700" fill="#3e7d4f" text-anchor="middle" letter-spacing="0.08em">TRACKING LIVE</text>
<rect x="252" y="170" width="880" height="500" rx="14" fill="#26221d" stroke="#26221d" filter="url(#soft)"/>
<rect x="252" y="170" width="880" height="500" rx="14" fill="#26221d"/>
<line x1="300" y1="600" x2="1090" y2="470" stroke="#4a443c" stroke-width="2"/>
<line x1="360" y1="640" x2="1060" y2="540" stroke="#3b3630" stroke-width="2"/>
<rect x="420" y="380" width="200" height="120" rx="8" fill="#332e28"/>
<rect x="770" y="330" width="60" height="150" rx="6" fill="#332e28"/>
<rect x="404" y="362" width="232" height="154" rx="6" fill="none" stroke="#9a4e5b" stroke-width="2"/>
<text x="410" y="354" font-family="'JetBrains Mono', Consolas, monospace" font-size="11" font-weight="700" fill="#9a4e5b" text-anchor="start">VEHICLE · 97.9%</text>
<rect x="756" y="312" width="88" height="186" rx="6" fill="none" stroke="#7fae8b" stroke-width="2"/>
<text x="756" y="304" font-family="'JetBrains Mono', Consolas, monospace" font-size="11" font-weight="700" fill="#7fae8b" text-anchor="start">PERSON · 96.2%</text>
<text x="280" y="200" font-family="'JetBrains Mono', Consolas, monospace" font-size="12" font-weight="600" fill="#cfc8be" text-anchor="start">2025-05-14  09:42:14</text>
<rect x="280" y="628" width="824" height="4" rx="2" fill="#4a443c"/>
<rect x="280" y="628" width="330" height="4" rx="2" fill="#9a4e5b"/>
<circle cx="610" cy="630" r="7" fill="#9a4e5b"/>
<text x="280" y="656" font-family="'JetBrains Mono', Consolas, monospace" font-size="11" font-weight="600" fill="#a49a8d" text-anchor="start">00:21 / 02:15</text>
<rect x="252" y="694" width="880" height="144" rx="14" fill="#ffffff" stroke="#e7e3dc" filter="url(#soft)"/>
<text x="280" y="726" font-family="Inter, -apple-system, 'Segoe UI', sans-serif" font-size="11" font-weight="700" fill="#8a8177" text-anchor="start" letter-spacing="0.12em">EVENT TIMELINE</text>
<line x1="292" y1="778" x2="1100" y2="778" stroke="#e7e3dc" stroke-width="2"/>
<circle cx="330" cy="778" r="7" fill="#ffffff" stroke="#9a4e5b" stroke-width="2"/>
<text x="330" y="812" font-family="'JetBrains Mono', Consolas, monospace" font-size="11" font-weight="700" fill="#221e19" text-anchor="middle">09:42:14</text>
<text x="330" y="830" font-family="Inter, -apple-system, 'Segoe UI', sans-serif" font-size="11" font-weight="500" fill="#8a8177" text-anchor="middle">person enters</text>
<circle cx="548" cy="778" r="7" fill="#ffffff" stroke="#9a4e5b" stroke-width="2"/>
<text x="548" y="812" font-family="'JetBrains Mono', Consolas, monospace" font-size="11" font-weight="700" fill="#221e19" text-anchor="middle">09:42:21</text>
<text x="548" y="830" font-family="Inter, -apple-system, 'Segoe UI', sans-serif" font-size="11" font-weight="500" fill="#8a8177" text-anchor="middle">vehicle stops</text>
<circle cx="766" cy="778" r="7" fill="#9a4e5b" stroke="#9a4e5b" stroke-width="2"/>
<text x="766" y="812" font-family="'JetBrains Mono', Consolas, monospace" font-size="11" font-weight="700" fill="#221e19" text-anchor="middle">09:42:39</text>
<text x="766" y="830" font-family="Inter, -apple-system, 'Segoe UI', sans-serif" font-size="11" font-weight="500" fill="#8a8177" text-anchor="middle">object exchange</text>
<circle cx="984" cy="778" r="7" fill="#ffffff" stroke="#9a4e5b" stroke-width="2"/>
<text x="984" y="812" font-family="'JetBrains Mono', Consolas, monospace" font-size="11" font-weight="700" fill="#221e19" text-anchor="middle">09:43:02</text>
<text x="984" y="830" font-family="Inter, -apple-system, 'Segoe UI', sans-serif" font-size="11" font-weight="500" fill="#8a8177" text-anchor="middle">vehicle exits</text>
<rect x="1156" y="170" width="408" height="668" rx="14" fill="#ffffff" stroke="#e7e3dc" filter="url(#soft)"/>
<text x="1184" y="206" font-family="Inter, -apple-system, 'Segoe UI', sans-serif" font-size="11" font-weight="700" fill="#8a8177" text-anchor="start" letter-spacing="0.12em">DETECTIONS</text>
<rect x="1184" y="232" width="352" height="76" rx="10" fill="#f4e9eb" stroke="#e7e3dc"/>
<text x="1204" y="262" font-family="Inter, -apple-system, 'Segoe UI', sans-serif" font-size="13.5" font-weight="700" fill="#221e19" text-anchor="start">Person #04</text>
<text x="1204" y="286" font-family="'JetBrains Mono', Consolas, monospace" font-size="11.5" font-weight="500" fill="#8a8177" text-anchor="start">cam 12 · frame 1284</text>
<text x="1516" y="262" font-family="Inter, -apple-system, 'Segoe UI', sans-serif" font-size="13" font-weight="750" fill="#9a4e5b" text-anchor="end">96.2%</text>
<rect x="1440" y="278" width="76" height="6" rx="3.0" fill="#e7e3dc"/><rect x="1440" y="278" width="73" height="6" rx="3.0" fill="#9a4e5b"/>
<rect x="1184" y="324" width="352" height="76" rx="10" fill="#f4e9eb" stroke="#e7e3dc"/>
<text x="1204" y="354" font-family="Inter, -apple-system, 'Segoe UI', sans-serif" font-size="13.5" font-weight="700" fill="#221e19" text-anchor="start">Vehicle · sedan</text>
<text x="1204" y="378" font-family="'JetBrains Mono', Consolas, monospace" font-size="11.5" font-weight="500" fill="#8a8177" text-anchor="start">cam 12 · frame 1284</text>
<text x="1516" y="354" font-family="Inter, -apple-system, 'Segoe UI', sans-serif" font-size="13" font-weight="750" fill="#9a4e5b" text-anchor="end">97.9%</text>
<rect x="1440" y="370" width="76" height="6" rx="3.0" fill="#e7e3dc"/><rect x="1440" y="370" width="74" height="6" rx="3.0" fill="#9a4e5b"/>
<rect x="1184" y="416" width="352" height="76" rx="10" fill="#f8f8f8" stroke="#e7e3dc"/>
<text x="1204" y="446" font-family="Inter, -apple-system, 'Segoe UI', sans-serif" font-size="13.5" font-weight="700" fill="#221e19" text-anchor="start">Bag · handheld</text>
<text x="1204" y="470" font-family="'JetBrains Mono', Consolas, monospace" font-size="11.5" font-weight="500" fill="#8a8177" text-anchor="start">cam 12 · frame 1284</text>
<text x="1516" y="446" font-family="Inter, -apple-system, 'Segoe UI', sans-serif" font-size="13" font-weight="750" fill="#221e19" text-anchor="end">88.4%</text>
<rect x="1440" y="462" width="76" height="6" rx="3.0" fill="#e7e3dc"/><rect x="1440" y="462" width="67" height="6" rx="3.0" fill="#c9beb2"/>
<rect x="1184" y="508" width="352" height="76" rx="10" fill="#f8f8f8" stroke="#e7e3dc"/>
<text x="1204" y="538" font-family="Inter, -apple-system, 'Segoe UI', sans-serif" font-size="13.5" font-weight="700" fill="#221e19" text-anchor="start">Person #05</text>
<text x="1204" y="562" font-family="'JetBrains Mono', Consolas, monospace" font-size="11.5" font-weight="500" fill="#8a8177" text-anchor="start">cam 12 · frame 1284</text>
<text x="1516" y="538" font-family="Inter, -apple-system, 'Segoe UI', sans-serif" font-size="13" font-weight="750" fill="#221e19" text-anchor="end">84.1%</text>
<rect x="1440" y="554" width="76" height="6" rx="3.0" fill="#e7e3dc"/><rect x="1440" y="554" width="64" height="6" rx="3.0" fill="#c9beb2"/>
<rect x="1184" y="600" width="352" height="76" rx="10" fill="#f8f8f8" stroke="#e7e3dc"/>
<text x="1204" y="630" font-family="Inter, -apple-system, 'Segoe UI', sans-serif" font-size="13.5" font-weight="700" fill="#221e19" text-anchor="start">Plate fragment</text>
<text x="1204" y="654" font-family="'JetBrains Mono', Consolas, monospace" font-size="11.5" font-weight="500" fill="#8a8177" text-anchor="start">cam 12 · frame 1284</text>
<text x="1516" y="630" font-family="Inter, -apple-system, 'Segoe UI', sans-serif" font-size="13" font-weight="750" fill="#221e19" text-anchor="end">71.6%</text>
<rect x="1440" y="646" width="76" height="6" rx="3.0" fill="#e7e3dc"/><rect x="1440" y="646" width="54" height="6" rx="3.0" fill="#c9beb2"/>
<rect x="1184" y="706" width="136" height="26" rx="13" fill="#f1efe9"/><text x="1252.0" y="723" font-family="Inter, -apple-system, 'Segoe UI', sans-serif" font-size="10" font-weight="700" fill="#8a8177" text-anchor="middle" letter-spacing="0.08em">EXPORT EVENT LOG</text>
<rect x="1184" y="744" width="178" height="26" rx="13" fill="#f4e9eb"/><text x="1273.0" y="761" font-family="Inter, -apple-system, 'Segoe UI', sans-serif" font-size="10" font-weight="700" fill="#9a4e5b" text-anchor="middle" letter-spacing="0.08em">SEND TO EVIDENCE GRAPH</text>
</svg>